<?xml version="1.0" standalone="no"?>
<!DOCTYPE svg PUBLIC "-//W3C//DTD SVG 20010904//EN"
 "http://www.w3.org/TR/2001/REC-SVG-20010904/DTD/svg10.dtd">
<svg version="1.0" xmlns="http://www.w3.org/2000/svg"
 width="81.000000pt" height="81.000000pt" viewBox="0 0 81.000000 81.000000"
 preserveAspectRatio="xMidYMid meet">
<metadata>
Created by potrace 1.11, written by Peter Selinger 2001-2013
</metadata>
<g transform="translate(0.000000,81.000000) scale(0.100000,-0.100000)"
fill="#000000" stroke="none">
<path d="M58 669 c-1 -8 -2 -67 -2 -131 l-1 -118 27 0 c17 0 28 -5 28 -14 0
-9 7 -12 20 -9 25 7 25 -7 4 -69 -8 -26 -14 -61 -12 -80 2 -27 8 -34 30 -36
34 -4 42 20 34 102 -7 60 -6 62 29 104 39 45 65 54 65 23 0 -12 8 -21 20 -23
20 -3 20 -3 0 -36 -11 -18 -36 -40 -55 -48 -44 -18 -45 -34 -2 -34 18 0 41 -6
50 -13 16 -11 13 -16 -27 -55 -47 -46 -77 -97 -69 -119 11 -29 84 -11 126 31
27 27 44 84 33 111 -3 8 -3 15 0 15 2 0 9 -12 14 -26 6 -14 19 -28 30 -31 24
-6 24 -4 6 -39 -22 -41 4 -82 44 -69 26 8 37 30 45 85 3 25 13 52 21 60 12 12
14 9 15 -25 3 -110 34 -136 71 -61 20 42 23 44 39 30 26 -23 56 -2 85 59 25
55 30 77 15 77 -5 0 -17 -20 -26 -45 -19 -49 -48 -81 -64 -70 -19 11 -13 80 9
100 24 21 26 51 5 59 -8 3 -15 16 -15 30 0 22 3 24 40 19 49 -7 77 14 86 63
14 77 -38 138 -99 115 -17 -7 -27 -7 -27 -1 0 6 -10 8 -22 6 -13 -3 -26 -5
-30 -5 -5 -1 -8 -16 -8 -33 l0 -33 -26 32 c-34 43 -81 52 -129 24 -29 -16 -35
-18 -35 -5 0 20 -27 29 -44 15 -10 -8 -16 -9 -21 -2 -3 6 -16 9 -28 7 -19 -2
-22 -10 -25 -59 -2 -32 -7 -57 -12 -57 -4 0 -6 17 -3 39 10 76 -36 129 -120
137 -18 2 -44 6 -59 10 -20 4 -29 2 -30 -7z m126 -75 c23 -22 21 -74 -2 -74
-10 0 -25 -11 -32 -25 -20 -37 -30 -21 -30 51 0 61 1 64 24 64 14 0 32 -7 40
-16z m324 -56 c2 -8 -9 -23 -23 -32 -24 -16 -25 -16 -25 7 0 41 41 62 48 25z
m-112 -30 c2 -55 37 -88 95 -88 l39 0 0 -57 c0 -33 -7 -66 -14 -76 -13 -17
-15 -15 -21 22 -8 48 -21 53 -30 13 -10 -47 -42 -92 -61 -85 -13 5 -15 15 -11
50 5 48 -3 53 -33 23 -19 -19 -22 -19 -50 -5 l-30 16 32 40 c29 36 33 48 33
102 0 68 7 87 33 87 13 0 18 -9 18 -42z m308 26 c9 -24 7 -28 -9 -14 -17 14
-20 30 -6 30 5 0 12 -7 15 -16z m-100 -184 c11 0 13 -11 9 -42 -6 -57 -31
-146 -42 -153 -23 -13 -25 285 -3 307 7 7 13 21 14 33 1 11 4 -17 5 -62 3 -62
7 -83 17 -83z m-438 -81 c-1 -16 -5 -28 -11 -26 -9 2 -10 19 -6 67 2 28 18 -9
17 -41z m159 -77 c-20 -37 -87 -83 -101 -69 -9 9 42 82 75 108 37 30 51 8 26
-39z m135 -41 c-12 -24 -40 -28 -40 -7 0 7 10 26 23 42 21 28 22 28 25 7 2
-12 -2 -31 -8 -42z"/>
</g>
</svg>
